<svg width="20" height="24" viewBox="0 0 20 24" fill="none" xmlns="http://www.w3.org/2000/svg">
<g id="Group">
<path id="Vector" d="M14.2863 11.1426C14.2863 12.2793 13.8347 13.3694 13.031 14.1731C12.2273 14.9768 11.1372 15.4284 10.0006 15.4284C8.86392 15.4284 7.77383 14.9768 6.9701 14.1731C6.16637 13.3694 5.71484 12.2793 5.71484 11.1426V5.14265C5.71484 4.00601 6.16637 2.91592 6.9701 2.11219C7.77383 1.30846 8.86392 0.856934 10.0006 0.856934C11.1372 0.856934 12.2273 1.30846 13.031 2.11219C13.8347 2.91592 14.2863 4.00601 14.2863 5.14265V11.1426Z" stroke="black" stroke-width="1.5" stroke-linecap="round" stroke-linejoin="round"/>
<path id="Vector_2" d="M18.5716 12C18.5738 13.0137 18.3759 14.0178 17.989 14.9548C17.6021 15.8918 17.034 16.7431 16.3172 17.4599C15.6004 18.1767 14.7491 18.7448 13.8121 19.1317C12.8751 19.5186 11.871 19.7165 10.8573 19.7143H9.14302C8.12933 19.7165 7.12517 19.5186 6.18821 19.1317C5.25125 18.7448 4.39994 18.1767 3.68315 17.4599C2.96636 16.7431 2.39822 15.8918 2.01134 14.9548C1.62446 14.0178 1.42647 13.0137 1.42873 12M10.0002 19.7143V23.1429" stroke="black" stroke-width="1.5" stroke-linecap="round" stroke-linejoin="round"/>
</g>
</svg>
